<?xml version="1.0" encoding="utf-8"?>
<!-- Generator: Adobe Illustrator 15.0.0, SVG Export Plug-In . SVG Version: 6.00 Build 0)  -->
<!DOCTYPE svg PUBLIC "-//W3C//DTD SVG 1.1//EN" "http://www.w3.org/Graphics/SVG/1.1/DTD/svg11.dtd">
<svg version="1.1" xmlns="http://www.w3.org/2000/svg" xmlns:xlink="http://www.w3.org/1999/xlink" x="0px" y="0px"
	 width="93.333px" height="83.333px" viewBox="29.84 14.475 93.333 83.333" enable-background="new 29.84 14.475 93.333 83.333"
	 xml:space="preserve">
<g id="Layer_1">
	<g id="Layer_1_1_" display="none">
		<path display="inline" fill="none" stroke="#000000" stroke-width="0.3348" stroke-miterlimit="10" d="M67.299,49.691
			c3.558-9.701,17.758-14.556,26.399-9.421c0.694,0.414,1.7,0.938,1.833,1.566c1.556,7.244,8.464,8.897,12.942,13.124
			c3.046,2.875,5.008,8.038,5.391,12.359c0.813,9.155,0.241,18.433,0.309,27.658c0.037,5.077-2.325,7.583-7.456,7.565
			c-19.682-0.073-39.363-0.168-59.044-0.1c-5.242,0.017-7.529-2.452-7.541-7.437c-0.027-9.635,0.358-19.292-0.129-28.902
			C39.509,56.299,54.842,45.211,67.299,49.691z M46.87,72.716c-0.47,0.004-0.939,0.009-1.41,0.012
			c-0.209-1.305-0.572-2.605-0.604-3.913c-0.161-6.725,1.305-7.46,10.755-7.229c5.936,0.146,5.622,3.604,5.542,7.885
			c-0.168,8.975-0.049,17.97,0.428,26.93c0.071,1.34,2.138,3.429,3.294,3.434c13.541,0.049,27.958,0.334,41.501,0.351
			c3.604,0.005,5.14-1.648,5.101-5.278c-0.107-9.646,0.144-19.295-0.114-28.932c-0.156-5.878-3.26-10.295-9.004-11.856
			c-3.796-1.032-6.189-2.581-6.837-6.625c-0.66-4.105-3.363-5.844-7.453-5.72c-2.664,0.08-5.352,0.173-7.999-0.066
			c-5.045-0.455-8.372,1.303-9.426,6.518c-0.977,4.829-3.399,5.45-8.016,3.818c-8.115-2.866-19.294,5.028-19.586,13.647
			c-0.338,10.044-0.314,20.115,0.044,30.154c0.054,1.5,0.809,4.606,7.524,4.611c9.036,0.005,8.751-1.894,8.505-6.589
			c-0.417-7.949-0.562-15.922-0.553-23.881c0.002-3.002,0.791-5.951-3.798-5.836c-3.621,0.09-7.87-0.999-7.378,5.082
			C47.479,70.369,47.055,71.552,46.87,72.716z"/>
	</g>
	<g id="Layer_20">
		<path fill="none" stroke="#000000" stroke-miterlimit="10" d="M62.609,39.379c-8.951-1.89-19.538,5.028-19.83,13.647
			c-0.338,10.056-0.071,20.103,0.287,30.154c0.115,2.372,0.197,4.225,7.451,4.278c8.62,0.063,8.703-1.285,8.579-6.255
			c-0.2-7.958-0.562-15.922-0.553-23.882c0.002-3.002-0.068-6.08-3.555-6.08c-4.624,0-8.113-1.242-7.621,4.838
			c0.092,1.142-0.331,2.812-0.519,3.977c-0.47,0.005-0.939,0.01-1.41,0.012c-0.209-1.305-0.572-2.605-0.604-3.913
			c-0.161-6.725,1.31-7.582,10.755-7.229c5.247,0.197,5.303,3.604,5.298,7.884c-0.007,8.892,0.594,17.958,0.672,26.93
			c0.022,2.684,1.556,3.428,4.025,3.434c13.541,0.023,27.228,0.333,40.771,0.351c3.604,0.004,5.14-1.648,5.101-5.279
			c-0.107-9.645,0.144-19.294-0.114-28.932c-0.156-5.878-3.26-10.295-9.004-11.855c-3.796-1.033-6.189-2.581-6.837-6.625
			c-0.66-4.105-3.363-5.844-7.453-5.72c-2.664,0.08-5.352,0.173-7.999-0.066c-5.045-0.455-8.371,1.303-9.425,6.519
			C69.648,40.39,67.401,40.39,62.609,39.379"/>
	</g>
	<g id="Layer_21">
		<path fill="none" stroke="#000000" stroke-width="2" stroke-miterlimit="10" d="M65.283,37.2c2.557,0.44,2.457-2.184,2.99-3.898
			c1.308-4.217,3.119-5.009,5.276-6.051c3.119-1.505,5.754-0.76,10.787-0.76c2.9,0,8.491-0.694,11.252,2.681
			c2.206,2.696,1.879,5.773,3.331,7.607c1.911,2.416,7.166,2.491,9.854,5.028c3.046,2.875,5.188,6.939,5.147,12.846
			c0.427,9.219-0.002,18.433,0.066,27.658c0.037,5.077-2.325,7.583-7.456,7.565c-19.682-0.073-39.363-0.168-59.044-0.1
			c-5.242,0.017-7.529-2.452-7.541-7.437c-0.026-9.635-0.129-22.102-0.129-28.902s4.79-12.323,11.527-15.133
			C57.917,35.564,60.805,36.426,65.283,37.2z"/>
	</g>
	<g id="Layer_4" display="none">
	</g>
	<g id="Layer_2_copy_10_1_">
		<path fill="none" stroke="#020202" stroke-width="0.55" d="M83.075,80.16c-3.78-0.653-7.067-2.74-9.175-5.307
			c-0.31-0.379,2.698-6.808,9.307-11.744C83.207,63.109,81.155,70.813,83.075,80.16z"/>
	</g>
	<g id="Layer_2_copy_10">
		<path fill="none" stroke="#020202" stroke-width="0.55" d="M71.743,72.109c-1.953-3.302-2.496-7.156-1.909-10.426
			c0.088-0.482,6.932-2.36,14.975-0.528C84.809,61.155,77.613,64.588,71.743,72.109z"/>
	</g>
	<g id="Layer_2_copy_10_2_">
		<path fill="none" stroke="#020202" stroke-width="0.55" d="M70.957,57.68c1.455-3.55,4.203-6.308,7.165-7.812
			c0.438-0.22,6.064,4.105,9.455,11.626C87.576,61.494,80.498,57.826,70.957,57.68z"/>
	</g>
	<g id="Layer_2_copy_10_3_">
		<path fill="none" stroke="#020202" stroke-width="0.55" d="M81.635,48.29c3.671-1.115,7.545-0.729,10.582,0.617
			c0.447,0.2,0.649,7.294-3.037,14.674C89.18,63.581,87.55,55.777,81.635,48.29z"/>
	</g>
	<g id="Layer_2_copy_13">
		<path fill="none" stroke="#020202" stroke-width="0.55" d="M95.822,50.862c3.75,2.844,5.006,5.5,6.072,8.722
			c0.153,0.466-5.379,5.102-13.455,6.774C88.439,66.358,93.606,60.145,95.822,50.862z"/>
	</g>
	<g id="Layer_2_copy_14">
		<path fill="none" stroke="#020202" stroke-width="0.55" d="M102.5,63.846c0.029,3.411-1.132,7.528-3.18,10.056
			c-0.309,0.383-7.363-1.249-13.541-6.716C85.78,67.184,93.74,67.627,102.5,63.846z"/>
	</g>
	<g id="Layer_2_copy_15">
		<path fill="none" stroke="#020202" stroke-width="0.55" d="M97.329,76.145c-3.511,3.136-6.387,3.954-9.752,4.383
			c-0.487,0.061-3.91-6.192-4.003-14.439C83.574,66.088,88.643,72.188,97.329,76.145z"/>
	</g>
	<circle fill="none" stroke="#020202" stroke-width="2" stroke-miterlimit="10" cx="86.055" cy="64.13" r="19.024"/>
</g>
<g id="Layer_2" display="none">
	<path display="inline" fill="#2B2B2B" d="M103.439,70.925c-1.528,0-3.058-0.573-4.234-1.725l-6.411-6.417
		c-0.523-0.522-0.523-1.37,0-1.894c0.523-0.521,1.371-0.523,1.894,0l6.399,6.407c1.326,1.293,3.468,1.269,4.769-0.062
		c1.274-1.304,1.274-3.422,0-4.726l-1.453-1.453c-0.04-0.031-0.08-0.064-0.115-0.103c-0.037-0.037-0.074-0.075-0.104-0.116
		L90.027,46.673c-2.531-2.528-4.861-2.456-7.56,0.247l-0.995,0.981c-1.183,1.133-2.726,1.716-4.335,1.695
		c-1.618-0.037-3.125-0.699-4.244-1.869c-2.248-2.349-2.248-6.028,0-8.376l3.358-3.354c3.821-3.824,6.327-5.646,10.233-5.646h5.119
		c0.354,0,0.696,0.142,0.947,0.392l20.979,20.967c0.251,0.251,0.392,0.591,0.392,0.947c0,0.355-0.141,0.695-0.392,0.947
		l-6.395,6.396l0.625,0.625c2.294,2.347,2.294,6.147,0.01,8.482C106.585,70.317,105.014,70.925,103.439,70.925 M86.436,42.155
		c1.877,0,3.735,0.874,5.486,2.624l13.319,13.324l5.446-5.446L91.049,33.03h-4.564c-2.701,0-4.572,1.09-8.339,4.861l-3.337,3.334
		c-1.232,1.289-1.232,3.34,0.021,4.649c1.287,1.347,3.429,1.394,4.776,0.104l0.975-0.96C82.486,43.111,84.472,42.155,86.436,42.155"
		/>
	<path display="inline" fill="#2B2B2B" d="M98.464,79.302c-1.619,0-3.14-0.631-4.285-1.774l-7.358-7.361
		c-0.523-0.524-0.523-1.373,0-1.896c0.523-0.522,1.372-0.522,1.895,0.001l7.358,7.362c0.638,0.636,1.487,0.988,2.39,0.988
		c0.902,0,1.751-0.352,2.39-0.99c0.638-0.639,0.99-1.488,0.99-2.39c0-0.904-0.352-1.752-0.991-2.391l-8.072-8.069
		c-0.523-0.523-0.523-1.37,0-1.894c0.523-0.523,1.371-0.523,1.895,0l8.071,8.067c1.145,1.146,1.773,2.667,1.776,4.286
		c0,1.62-0.631,3.14-1.775,4.285C101.604,78.671,100.083,79.302,98.464,79.302L98.464,79.302z"/>
	<path display="inline" fill="#2B2B2B" d="M90.012,84.183c-1.487,0-2.973-0.54-4.132-1.621l-3.367-3.369
		c-0.523-0.523-0.523-1.372,0-1.894c0.523-0.523,1.371-0.523,1.894,0l3.334,3.337c1.26,1.173,3.283,1.172,4.577-0.035
		c1.36-1.271,1.434-3.415,0.162-4.775l-5.657-5.659c-0.523-0.523-0.523-1.373,0-1.894c0.523-0.524,1.371-0.524,1.894,0l5.69,5.693
		c2.311,2.474,2.18,6.314-0.26,8.593C92.988,83.641,91.499,84.182,90.012,84.183"/>
	<path display="inline" fill="#2B2B2B" d="M82.044,89.561c-1.5,0-3.001-0.556-4.172-1.666l-1.491-1.496
		c-0.521-0.523-0.521-1.371,0.003-1.894c0.524-0.524,1.372-0.521,1.894,0.003l1.465,1.471c1.279,1.212,3.323,1.212,4.626-0.028
		c1.351-1.284,1.405-3.425,0.122-4.776l-1.617-1.621c-0.522-0.523-0.522-1.372,0.002-1.894c0.523-0.522,1.371-0.522,1.895,0.002
		l1.639,1.643c2.323,2.444,2.227,6.286-0.195,8.586C85.047,89.005,83.545,89.561,82.044,89.561 M49.423,61.345
		c-0.343,0-0.686-0.131-0.947-0.392l-7.608-7.609c-0.523-0.522-0.523-1.37,0-1.894l18.896-18.901
		c0.263-0.264,0.619-0.403,0.997-0.391c0.372,0.015,0.722,0.182,0.966,0.464c0.883,1.021,2.587,2.462,3.613,2.462
		c1.822,0,2.201-0.383,3.454-1.646l0.318-0.321c3.12-3.12,7.777-2.826,11.33,0.722c0.523,0.521,0.523,1.371,0.001,1.895
		c-0.523,0.524-1.372,0.523-1.896,0.001c-2.512-2.507-5.471-2.795-7.542-0.725l-0.309,0.312c-1.404,1.416-2.417,2.441-5.357,2.441
		c-1.769,0-3.555-1.356-4.639-2.362L43.709,52.396l6.661,6.662c0.523,0.524,0.523,1.371,0,1.895
		C50.108,61.213,49.766,61.345,49.423,61.345"/>
	<path display="inline" fill="#2B2B2B" d="M51.256,70.895c-1.507,0-3.01-0.562-4.18-1.686c-2.414-2.309-2.498-6.151-0.188-8.564
		l3.354-3.355c0.057-0.062,0.151-0.155,0.248-0.246c1.175-1.104,2.713-1.688,4.333-1.631c1.617,0.051,3.118,0.73,4.224,1.91
		c1.107,1.181,1.688,2.721,1.637,4.338c-0.051,1.609-0.725,3.103-1.893,4.209l-3.315,3.321
		C54.286,70.326,52.769,70.895,51.256,70.895 M54.625,58.088c-0.861,0-1.677,0.322-2.308,0.915c-0.055,0.05-0.102,0.097-0.147,0.147
		l-3.367,3.369c-1.268,1.325-1.221,3.466,0.125,4.755c1.309,1.255,3.359,1.255,4.671,0.001l3.307-3.314
		c0.01-0.01,0.021-0.021,0.033-0.032c0.658-0.618,1.036-1.454,1.063-2.355c0.03-0.902-0.295-1.761-0.912-2.42
		c-0.617-0.658-1.453-1.037-2.354-1.065C54.698,58.089,54.662,58.088,54.625,58.088"/>
	<path display="inline" fill="#2B2B2B" d="M64.606,84.216c-1.501,0-2.996-0.556-4.163-1.663c-1.065-1.011-1.715-2.344-1.856-3.792
		c-2.165,0.903-4.726,0.494-6.511-1.218c-2.412-2.308-2.497-6.151-0.188-8.565l5.019-5.018c2.363-2.361,6.205-2.361,8.567-0.002
		c1.37,1.37,1.946,3.238,1.727,5.028c1.674-0.163,3.412,0.382,4.723,1.621c2.428,2.292,2.538,6.133,0.246,8.563l-0.027,0.028
		l-3.332,3.333C67.627,83.655,66.114,84.216,64.606,84.216 M64.576,73.425l-2.434,2.434c-1.259,1.324-1.204,3.468,0.146,4.751
		c1.306,1.241,3.349,1.241,4.654,0l3.292-3.294c1.267-1.355,1.201-3.49-0.148-4.764c-1.297-1.224-3.324-1.226-4.625-0.013
		L64.576,73.425z M71.197,78.249h0.013H71.197z M61.192,64.865c-0.867,0-1.731,0.33-2.391,0.987l-4.998,4.999
		c-1.268,1.325-1.221,3.468,0.126,4.757c1.312,1.254,3.361,1.252,4.671,0l4.981-4.979c1.317-1.317,1.316-3.461-0.001-4.779
		C62.922,65.193,62.058,64.865,61.192,64.865"/>
	<path display="inline" fill="#2B2B2B" d="M72.574,89.594c-1.513,0-3.023-0.569-4.203-1.708c-2.402-2.321-2.467-6.164-0.146-8.565
		l1.657-1.66c2.363-2.362,6.205-2.362,8.567,0c1.145,1.143,1.775,2.663,1.775,4.281c0,1.618-0.629,3.14-1.774,4.284v0.001
		l-1.646,1.644C75.614,89.021,74.093,89.594,72.574,89.594 M74.167,78.567c-0.866,0-1.731,0.33-2.39,0.989l-1.642,1.643
		c-1.278,1.323-1.241,3.467,0.1,4.762c1.313,1.27,3.378,1.273,4.694,0l1.628-1.627c0.638-0.639,0.989-1.487,0.989-2.389
		c0-0.903-0.352-1.75-0.99-2.388C75.897,78.897,75.031,78.567,74.167,78.567 M77.503,85.28h0.013H77.503z"/>
	<path display="inline" fill="#2B2B2B" d="M94.062,35.487c-0.342,0-0.686-0.132-0.947-0.393l-7.301-7.3
		c-0.519-0.52-0.523-1.361-0.009-1.885l4.021-4.103c0.517-0.529,1.367-0.536,1.894-0.019c0.527,0.518,0.537,1.366,0.019,1.894
		l-3.092,3.156l6.363,6.363c0.523,0.524,0.523,1.37,0,1.894C94.747,35.355,94.405,35.487,94.062,35.487"/>
	<path display="inline" fill="#2B2B2B" d="M60.698,34.85c-0.343,0-0.686-0.131-0.947-0.392c-0.523-0.524-0.523-1.37,0-1.895
		l3.626-3.626l-4.665-4.664c-0.523-0.524-0.523-1.372,0-1.896c0.523-0.522,1.371-0.522,1.894,0l5.612,5.612
		c0.523,0.524,0.523,1.371,0,1.895l-4.573,4.573C61.383,34.718,61.04,34.85,60.698,34.85"/>
</g>
</svg>
